<svg width="66" height="50" viewBox="0 0 66 50" fill="none" xmlns="http://www.w3.org/2000/svg">
<path d="M38.4527 4.48513H19.207C18.1758 4.48513 17.3379 3.64724 17.3379 2.61599C17.3379 1.58475 18.1758 0.746857 19.207 0.746857H38.4527C39.484 0.746857 40.3219 1.58475 40.3219 2.61599C40.3219 3.64724 39.484 4.48513 38.4527 4.48513Z" fill="#2D527C"/>
<path d="M23.3191 35.4871H17.3766C7.79883 35.4871 0 27.6883 0 18.1105C0 11.7683 3.45469 5.92888 9.02344 2.8738C9.92578 2.37106 11.073 2.70622 11.5758 3.62146C12.0785 4.5238 11.7434 5.67107 10.8281 6.1738C6.4582 8.57146 3.75117 13.1476 3.75117 18.1234C3.75117 25.6386 9.86133 31.7488 17.3766 31.7488H23.3191C24.3504 31.7488 25.1883 32.5867 25.1883 33.6179C25.2012 34.6363 24.3504 35.4871 23.3191 35.4871Z" fill="#2D527C"/>
<path d="M24.9176 49.2027C16.3711 49.2027 9.41016 42.2418 9.41016 33.6824C9.41016 32.6512 10.248 31.8133 11.2793 31.8133C12.3105 31.8133 13.1484 32.6512 13.1484 33.6824C13.1484 40.1664 18.4207 45.4515 24.9176 45.4515C31.4145 45.4515 36.6867 40.1793 36.6867 33.6824C36.6867 27.1984 31.4145 21.9133 24.9176 21.9133C21.6563 21.9133 18.627 23.2152 16.384 25.5742C15.675 26.3219 14.4891 26.3605 13.7285 25.6387C12.9809 24.9297 12.9422 23.7437 13.6641 22.9832C16.6289 19.8637 20.625 18.1492 24.9176 18.1492C33.477 18.1492 40.4379 25.1101 40.4379 33.6695C40.4379 42.2289 33.477 49.2027 24.9176 49.2027Z" fill="#F0BF5F"/>
<path d="M49.5645 31.7875H38.1176C37.0864 31.7875 36.2485 30.9496 36.2485 29.9183C36.2485 28.8871 37.0864 28.0492 38.1176 28.0492H49.5645C50.5957 28.0492 51.4336 28.8871 51.4336 29.9183C51.4336 30.9496 50.5957 31.7875 49.5645 31.7875Z" fill="#F0BF5F"/>
<path d="M61.8105 39.3285H38.5559C37.5246 39.3285 36.6867 38.4906 36.6867 37.4593C36.6867 36.4281 37.5246 35.5902 38.5559 35.5902H61.8105C62.0555 35.5902 62.2488 35.3968 62.2488 35.1519V24.5043C62.2488 24.1433 61.9523 23.8597 61.6043 23.8597H59.9801C59.6191 23.8597 59.3355 24.1562 59.3355 24.5043V29.5058C59.3355 30.5371 58.4977 31.375 57.4664 31.375C56.4352 31.375 55.5973 30.5371 55.5973 29.5058V24.5043C55.5973 22.0808 57.5695 20.1086 59.993 20.1086H61.6172C64.0406 20.1086 66.0129 22.0808 66.0129 24.5043V35.1519C66 37.4464 64.118 39.3285 61.8105 39.3285Z" fill="#F0BF5F"/>
</svg>
